<mxfile host="app.diagrams.net" modified="2023-03-15T22:53:50.335Z" agent="5.0 (Windows)" etag="Gtj5-o3jHJV0SqPdK6lw" version="20.2.2" type="github">
  <diagram id="C5RBs43oDa-KdzZeNtuy" name="Page-1">
    <mxGraphModel dx="1673" dy="918" grid="1" gridSize="10" guides="1" tooltips="1" connect="1" arrows="1" fold="1" page="1" pageScale="1" pageWidth="827" pageHeight="1169" math="0" shadow="0">
      <root>
        <mxCell id="WIyWlLk6GJQsqaUBKTNV-0" />
        <mxCell id="WIyWlLk6GJQsqaUBKTNV-1" parent="WIyWlLk6GJQsqaUBKTNV-0" />
        <mxCell id="zkfFHV4jXpPFQw0GAbJ--0" value="CFactura" style="swimlane;fontStyle=2;align=center;verticalAlign=top;childLayout=stackLayout;horizontal=1;startSize=26;horizontalStack=0;resizeParent=1;resizeLast=0;collapsible=1;marginBottom=0;rounded=0;shadow=0;strokeWidth=3;fillColor=#dae8fc;strokeColor=#6c8ebf;swimlaneFillColor=default;" parent="WIyWlLk6GJQsqaUBKTNV-1" vertex="1">
          <mxGeometry x="1180" y="1200" width="160" height="216" as="geometry">
            <mxRectangle x="230" y="140" width="160" height="26" as="alternateBounds" />
          </mxGeometry>
        </mxCell>
        <mxCell id="zkfFHV4jXpPFQw0GAbJ--1" value="private String departamento" style="text;align=left;verticalAlign=top;spacingLeft=4;spacingRight=4;overflow=hidden;rotatable=0;points=[[0,0.5],[1,0.5]];portConstraint=eastwest;" parent="zkfFHV4jXpPFQw0GAbJ--0" vertex="1">
          <mxGeometry y="26" width="160" height="26" as="geometry" />
        </mxCell>
        <mxCell id="UW1McoA6TpxTpu0KqrxE-2" value="private String municipio" style="text;align=left;verticalAlign=top;spacingLeft=4;spacingRight=4;overflow=hidden;rotatable=0;points=[[0,0.5],[1,0.5]];portConstraint=eastwest;" vertex="1" parent="zkfFHV4jXpPFQw0GAbJ--0">
          <mxGeometry y="52" width="160" height="26" as="geometry" />
        </mxCell>
        <mxCell id="UW1McoA6TpxTpu0KqrxE-3" value="private String direccion" style="text;align=left;verticalAlign=top;spacingLeft=4;spacingRight=4;overflow=hidden;rotatable=0;points=[[0,0.5],[1,0.5]];portConstraint=eastwest;" vertex="1" parent="zkfFHV4jXpPFQw0GAbJ--0">
          <mxGeometry y="78" width="160" height="26" as="geometry" />
        </mxCell>
        <mxCell id="UW1McoA6TpxTpu0KqrxE-10" value="private String nit" style="text;align=left;verticalAlign=top;spacingLeft=4;spacingRight=4;overflow=hidden;rotatable=0;points=[[0,0.5],[1,0.5]];portConstraint=eastwest;" vertex="1" parent="zkfFHV4jXpPFQw0GAbJ--0">
          <mxGeometry y="104" width="160" height="26" as="geometry" />
        </mxCell>
        <mxCell id="zkfFHV4jXpPFQw0GAbJ--4" value="" style="line;html=1;strokeWidth=1;align=left;verticalAlign=middle;spacingTop=-1;spacingLeft=3;spacingRight=3;rotatable=0;labelPosition=right;points=[];portConstraint=eastwest;" parent="zkfFHV4jXpPFQw0GAbJ--0" vertex="1">
          <mxGeometry y="130" width="160" height="8" as="geometry" />
        </mxCell>
        <mxCell id="zkfFHV4jXpPFQw0GAbJ--5" value="&lt;&lt;Constructor&gt;&gt;&#xa;" style="text;align=left;verticalAlign=top;spacingLeft=4;spacingRight=4;overflow=hidden;rotatable=0;points=[[0,0.5],[1,0.5]];portConstraint=eastwest;" parent="zkfFHV4jXpPFQw0GAbJ--0" vertex="1">
          <mxGeometry y="138" width="160" height="26" as="geometry" />
        </mxCell>
        <mxCell id="UW1McoA6TpxTpu0KqrxE-12" value="&lt;&lt;Getters&gt;&gt;&#xa;" style="text;align=left;verticalAlign=top;spacingLeft=4;spacingRight=4;overflow=hidden;rotatable=0;points=[[0,0.5],[1,0.5]];portConstraint=eastwest;" vertex="1" parent="zkfFHV4jXpPFQw0GAbJ--0">
          <mxGeometry y="164" width="160" height="26" as="geometry" />
        </mxCell>
        <mxCell id="UW1McoA6TpxTpu0KqrxE-11" value="&lt;&lt;Setters&gt;&gt;&#xa;" style="text;align=left;verticalAlign=top;spacingLeft=4;spacingRight=4;overflow=hidden;rotatable=0;points=[[0,0.5],[1,0.5]];portConstraint=eastwest;" vertex="1" parent="zkfFHV4jXpPFQw0GAbJ--0">
          <mxGeometry y="190" width="160" height="26" as="geometry" />
        </mxCell>
        <mxCell id="zkfFHV4jXpPFQw0GAbJ--17" value="CKiosco&#xa;" style="swimlane;fontStyle=0;align=center;verticalAlign=top;childLayout=stackLayout;horizontal=1;startSize=26;horizontalStack=0;resizeParent=1;resizeLast=0;collapsible=1;marginBottom=0;rounded=0;shadow=0;strokeWidth=2;fillColor=#d0cee2;strokeColor=#56517e;" parent="WIyWlLk6GJQsqaUBKTNV-1" vertex="1">
          <mxGeometry x="260" y="1250" width="160" height="190" as="geometry">
            <mxRectangle x="550" y="140" width="160" height="26" as="alternateBounds" />
          </mxGeometry>
        </mxCell>
        <mxCell id="zkfFHV4jXpPFQw0GAbJ--18" value="private String codigoKiosco" style="text;align=left;verticalAlign=top;spacingLeft=4;spacingRight=4;overflow=hidden;rotatable=0;points=[[0,0.5],[1,0.5]];portConstraint=eastwest;" parent="zkfFHV4jXpPFQw0GAbJ--17" vertex="1">
          <mxGeometry y="26" width="160" height="26" as="geometry" />
        </mxCell>
        <mxCell id="zkfFHV4jXpPFQw0GAbJ--19" value="private String nombreKiosco" style="text;align=left;verticalAlign=top;spacingLeft=4;spacingRight=4;overflow=hidden;rotatable=0;points=[[0,0.5],[1,0.5]];portConstraint=eastwest;rounded=0;shadow=0;html=0;" parent="zkfFHV4jXpPFQw0GAbJ--17" vertex="1">
          <mxGeometry y="52" width="160" height="26" as="geometry" />
        </mxCell>
        <mxCell id="zkfFHV4jXpPFQw0GAbJ--20" value="private String regionKiosco" style="text;align=left;verticalAlign=top;spacingLeft=4;spacingRight=4;overflow=hidden;rotatable=0;points=[[0,0.5],[1,0.5]];portConstraint=eastwest;rounded=0;shadow=0;html=0;" parent="zkfFHV4jXpPFQw0GAbJ--17" vertex="1">
          <mxGeometry y="78" width="160" height="26" as="geometry" />
        </mxCell>
        <mxCell id="zkfFHV4jXpPFQw0GAbJ--23" value="" style="line;html=1;strokeWidth=1;align=left;verticalAlign=middle;spacingTop=-1;spacingLeft=3;spacingRight=3;rotatable=0;labelPosition=right;points=[];portConstraint=eastwest;" parent="zkfFHV4jXpPFQw0GAbJ--17" vertex="1">
          <mxGeometry y="104" width="160" height="8" as="geometry" />
        </mxCell>
        <mxCell id="UW1McoA6TpxTpu0KqrxE-14" value="&lt;&lt;Constructor&gt;&gt;&#xa;" style="text;align=left;verticalAlign=top;spacingLeft=4;spacingRight=4;overflow=hidden;rotatable=0;points=[[0,0.5],[1,0.5]];portConstraint=eastwest;" vertex="1" parent="zkfFHV4jXpPFQw0GAbJ--17">
          <mxGeometry y="112" width="160" height="26" as="geometry" />
        </mxCell>
        <mxCell id="UW1McoA6TpxTpu0KqrxE-15" value="&lt;&lt;Getters&gt;&gt;&#xa;" style="text;align=left;verticalAlign=top;spacingLeft=4;spacingRight=4;overflow=hidden;rotatable=0;points=[[0,0.5],[1,0.5]];portConstraint=eastwest;" vertex="1" parent="zkfFHV4jXpPFQw0GAbJ--17">
          <mxGeometry y="138" width="160" height="26" as="geometry" />
        </mxCell>
        <mxCell id="UW1McoA6TpxTpu0KqrxE-16" value="&lt;&lt;Setters&gt;&gt;&#xa;" style="text;align=left;verticalAlign=top;spacingLeft=4;spacingRight=4;overflow=hidden;rotatable=0;points=[[0,0.5],[1,0.5]];portConstraint=eastwest;" vertex="1" parent="zkfFHV4jXpPFQw0GAbJ--17">
          <mxGeometry y="164" width="160" height="26" as="geometry" />
        </mxCell>
        <mxCell id="UW1McoA6TpxTpu0KqrxE-25" value="CRegion&#xa;" style="swimlane;fontStyle=0;align=center;verticalAlign=top;childLayout=stackLayout;horizontal=1;startSize=26;horizontalStack=0;resizeParent=1;resizeLast=0;collapsible=1;marginBottom=0;rounded=0;shadow=0;strokeWidth=2;fillColor=#b0e3e6;strokeColor=#0e8088;" vertex="1" parent="WIyWlLk6GJQsqaUBKTNV-1">
          <mxGeometry x="200" y="1560" width="250" height="216" as="geometry">
            <mxRectangle x="550" y="140" width="160" height="26" as="alternateBounds" />
          </mxGeometry>
        </mxCell>
        <mxCell id="UW1McoA6TpxTpu0KqrxE-26" value="private String codigo" style="text;align=left;verticalAlign=top;spacingLeft=4;spacingRight=4;overflow=hidden;rotatable=0;points=[[0,0.5],[1,0.5]];portConstraint=eastwest;" vertex="1" parent="UW1McoA6TpxTpu0KqrxE-25">
          <mxGeometry y="26" width="250" height="26" as="geometry" />
        </mxCell>
        <mxCell id="UW1McoA6TpxTpu0KqrxE-27" value="private String nombre" style="text;align=left;verticalAlign=top;spacingLeft=4;spacingRight=4;overflow=hidden;rotatable=0;points=[[0,0.5],[1,0.5]];portConstraint=eastwest;rounded=0;shadow=0;html=0;" vertex="1" parent="UW1McoA6TpxTpu0KqrxE-25">
          <mxGeometry y="52" width="250" height="26" as="geometry" />
        </mxCell>
        <mxCell id="UW1McoA6TpxTpu0KqrxE-28" value="private ArrayList&lt;String&gt; ListaCodigoDeptos" style="text;align=left;verticalAlign=top;spacingLeft=4;spacingRight=4;overflow=hidden;rotatable=0;points=[[0,0.5],[1,0.5]];portConstraint=eastwest;rounded=0;shadow=0;html=0;" vertex="1" parent="UW1McoA6TpxTpu0KqrxE-25">
          <mxGeometry y="78" width="250" height="26" as="geometry" />
        </mxCell>
        <mxCell id="UW1McoA6TpxTpu0KqrxE-29" value="" style="line;html=1;strokeWidth=1;align=left;verticalAlign=middle;spacingTop=-1;spacingLeft=3;spacingRight=3;rotatable=0;labelPosition=right;points=[];portConstraint=eastwest;" vertex="1" parent="UW1McoA6TpxTpu0KqrxE-25">
          <mxGeometry y="104" width="250" height="8" as="geometry" />
        </mxCell>
        <mxCell id="UW1McoA6TpxTpu0KqrxE-30" value="&lt;&lt;Constructor&gt;&gt;&#xa;" style="text;align=left;verticalAlign=top;spacingLeft=4;spacingRight=4;overflow=hidden;rotatable=0;points=[[0,0.5],[1,0.5]];portConstraint=eastwest;" vertex="1" parent="UW1McoA6TpxTpu0KqrxE-25">
          <mxGeometry y="112" width="250" height="26" as="geometry" />
        </mxCell>
        <mxCell id="UW1McoA6TpxTpu0KqrxE-31" value="&lt;&lt;Getters&gt;&gt;&#xa;" style="text;align=left;verticalAlign=top;spacingLeft=4;spacingRight=4;overflow=hidden;rotatable=0;points=[[0,0.5],[1,0.5]];portConstraint=eastwest;" vertex="1" parent="UW1McoA6TpxTpu0KqrxE-25">
          <mxGeometry y="138" width="250" height="26" as="geometry" />
        </mxCell>
        <mxCell id="UW1McoA6TpxTpu0KqrxE-32" value="&lt;&lt;Setters&gt;&gt;&#xa;" style="text;align=left;verticalAlign=top;spacingLeft=4;spacingRight=4;overflow=hidden;rotatable=0;points=[[0,0.5],[1,0.5]];portConstraint=eastwest;" vertex="1" parent="UW1McoA6TpxTpu0KqrxE-25">
          <mxGeometry y="164" width="250" height="26" as="geometry" />
        </mxCell>
        <mxCell id="UW1McoA6TpxTpu0KqrxE-33" value="public String toString&#xa;&#xa;" style="text;align=left;verticalAlign=top;spacingLeft=4;spacingRight=4;overflow=hidden;rotatable=0;points=[[0,0.5],[1,0.5]];portConstraint=eastwest;" vertex="1" parent="UW1McoA6TpxTpu0KqrxE-25">
          <mxGeometry y="190" width="250" height="26" as="geometry" />
        </mxCell>
        <mxCell id="UW1McoA6TpxTpu0KqrxE-159" style="edgeStyle=orthogonalEdgeStyle;rounded=0;orthogonalLoop=1;jettySize=auto;html=1;exitX=0.5;exitY=0;exitDx=0;exitDy=0;entryX=0.418;entryY=1.005;entryDx=0;entryDy=0;entryPerimeter=0;" edge="1" parent="WIyWlLk6GJQsqaUBKTNV-1" source="UW1McoA6TpxTpu0KqrxE-34" target="UW1McoA6TpxTpu0KqrxE-147">
          <mxGeometry relative="1" as="geometry">
            <mxPoint x="789.9999999999995" y="1689.9999999999995" as="targetPoint" />
          </mxGeometry>
        </mxCell>
        <mxCell id="UW1McoA6TpxTpu0KqrxE-34" value="CReportesAdmin" style="swimlane;fontStyle=0;align=center;verticalAlign=top;childLayout=stackLayout;horizontal=1;startSize=26;horizontalStack=0;resizeParent=1;resizeLast=0;collapsible=1;marginBottom=0;rounded=0;shadow=0;strokeWidth=2;fillColor=#e1d5e7;strokeColor=#9673a6;" vertex="1" parent="WIyWlLk6GJQsqaUBKTNV-1">
          <mxGeometry x="540" y="1820" width="250" height="220" as="geometry">
            <mxRectangle x="550" y="140" width="160" height="26" as="alternateBounds" />
          </mxGeometry>
        </mxCell>
        <mxCell id="UW1McoA6TpxTpu0KqrxE-35" value="private String regionesConMasEnvios" style="text;align=left;verticalAlign=top;spacingLeft=4;spacingRight=4;overflow=hidden;rotatable=0;points=[[0,0.5],[1,0.5]];portConstraint=eastwest;" vertex="1" parent="UW1McoA6TpxTpu0KqrxE-34">
          <mxGeometry y="26" width="250" height="26" as="geometry" />
        </mxCell>
        <mxCell id="UW1McoA6TpxTpu0KqrxE-36" value="private String totalPaquetes&#xa;" style="text;align=left;verticalAlign=top;spacingLeft=4;spacingRight=4;overflow=hidden;rotatable=0;points=[[0,0.5],[1,0.5]];portConstraint=eastwest;rounded=0;shadow=0;html=0;" vertex="1" parent="UW1McoA6TpxTpu0KqrxE-34">
          <mxGeometry y="52" width="250" height="26" as="geometry" />
        </mxCell>
        <mxCell id="UW1McoA6TpxTpu0KqrxE-37" value="private String totalIngresos&#xa;" style="text;align=left;verticalAlign=top;spacingLeft=4;spacingRight=4;overflow=hidden;rotatable=0;points=[[0,0.5],[1,0.5]];portConstraint=eastwest;rounded=0;shadow=0;html=0;" vertex="1" parent="UW1McoA6TpxTpu0KqrxE-34">
          <mxGeometry y="78" width="250" height="26" as="geometry" />
        </mxCell>
        <mxCell id="UW1McoA6TpxTpu0KqrxE-44" value="private String usuariosConMasPaquetes&#xa;&#xa;" style="text;align=left;verticalAlign=top;spacingLeft=4;spacingRight=4;overflow=hidden;rotatable=0;points=[[0,0.5],[1,0.5]];portConstraint=eastwest;rounded=0;shadow=0;html=0;" vertex="1" parent="UW1McoA6TpxTpu0KqrxE-34">
          <mxGeometry y="104" width="250" height="26" as="geometry" />
        </mxCell>
        <mxCell id="UW1McoA6TpxTpu0KqrxE-38" value="" style="line;html=1;strokeWidth=1;align=left;verticalAlign=middle;spacingTop=-1;spacingLeft=3;spacingRight=3;rotatable=0;labelPosition=right;points=[];portConstraint=eastwest;" vertex="1" parent="UW1McoA6TpxTpu0KqrxE-34">
          <mxGeometry y="130" width="250" height="8" as="geometry" />
        </mxCell>
        <mxCell id="UW1McoA6TpxTpu0KqrxE-39" value="&lt;&lt;Constructor&gt;&gt;&#xa;" style="text;align=left;verticalAlign=top;spacingLeft=4;spacingRight=4;overflow=hidden;rotatable=0;points=[[0,0.5],[1,0.5]];portConstraint=eastwest;" vertex="1" parent="UW1McoA6TpxTpu0KqrxE-34">
          <mxGeometry y="138" width="250" height="26" as="geometry" />
        </mxCell>
        <mxCell id="UW1McoA6TpxTpu0KqrxE-40" value="&lt;&lt;Getters&gt;&gt;&#xa;" style="text;align=left;verticalAlign=top;spacingLeft=4;spacingRight=4;overflow=hidden;rotatable=0;points=[[0,0.5],[1,0.5]];portConstraint=eastwest;" vertex="1" parent="UW1McoA6TpxTpu0KqrxE-34">
          <mxGeometry y="164" width="250" height="26" as="geometry" />
        </mxCell>
        <mxCell id="UW1McoA6TpxTpu0KqrxE-41" value="&lt;&lt;Setters&gt;&gt;&#xa;" style="text;align=left;verticalAlign=top;spacingLeft=4;spacingRight=4;overflow=hidden;rotatable=0;points=[[0,0.5],[1,0.5]];portConstraint=eastwest;" vertex="1" parent="UW1McoA6TpxTpu0KqrxE-34">
          <mxGeometry y="190" width="250" height="26" as="geometry" />
        </mxCell>
        <mxCell id="UW1McoA6TpxTpu0KqrxE-45" value="CTarifa" style="swimlane;fontStyle=2;align=center;verticalAlign=top;childLayout=stackLayout;horizontal=1;startSize=26;horizontalStack=0;resizeParent=1;resizeLast=0;collapsible=1;marginBottom=0;rounded=0;shadow=0;strokeWidth=3;fillColor=#dae8fc;strokeColor=#6c8ebf;fillStyle=solid;swimlaneFillColor=default;" vertex="1" parent="WIyWlLk6GJQsqaUBKTNV-1">
          <mxGeometry x="500" y="340" width="170" height="216" as="geometry">
            <mxRectangle x="230" y="140" width="160" height="26" as="alternateBounds" />
          </mxGeometry>
        </mxCell>
        <mxCell id="UW1McoA6TpxTpu0KqrxE-46" value="private String codigo" style="text;align=left;verticalAlign=top;spacingLeft=4;spacingRight=4;overflow=hidden;rotatable=0;points=[[0,0.5],[1,0.5]];portConstraint=eastwest;" vertex="1" parent="UW1McoA6TpxTpu0KqrxE-45">
          <mxGeometry y="26" width="170" height="26" as="geometry" />
        </mxCell>
        <mxCell id="UW1McoA6TpxTpu0KqrxE-47" value="private String nombre" style="text;align=left;verticalAlign=top;spacingLeft=4;spacingRight=4;overflow=hidden;rotatable=0;points=[[0,0.5],[1,0.5]];portConstraint=eastwest;" vertex="1" parent="UW1McoA6TpxTpu0KqrxE-45">
          <mxGeometry y="52" width="170" height="26" as="geometry" />
        </mxCell>
        <mxCell id="UW1McoA6TpxTpu0KqrxE-48" value="private String precioEstandar" style="text;align=left;verticalAlign=top;spacingLeft=4;spacingRight=4;overflow=hidden;rotatable=0;points=[[0,0.5],[1,0.5]];portConstraint=eastwest;" vertex="1" parent="UW1McoA6TpxTpu0KqrxE-45">
          <mxGeometry y="78" width="170" height="26" as="geometry" />
        </mxCell>
        <mxCell id="UW1McoA6TpxTpu0KqrxE-49" value="private String precioEspecial&#xa;" style="text;align=left;verticalAlign=top;spacingLeft=4;spacingRight=4;overflow=hidden;rotatable=0;points=[[0,0.5],[1,0.5]];portConstraint=eastwest;" vertex="1" parent="UW1McoA6TpxTpu0KqrxE-45">
          <mxGeometry y="104" width="170" height="26" as="geometry" />
        </mxCell>
        <mxCell id="UW1McoA6TpxTpu0KqrxE-50" value="" style="line;html=1;strokeWidth=1;align=left;verticalAlign=middle;spacingTop=-1;spacingLeft=3;spacingRight=3;rotatable=0;labelPosition=right;points=[];portConstraint=eastwest;" vertex="1" parent="UW1McoA6TpxTpu0KqrxE-45">
          <mxGeometry y="130" width="170" height="8" as="geometry" />
        </mxCell>
        <mxCell id="UW1McoA6TpxTpu0KqrxE-51" value="&lt;&lt;Constructor&gt;&gt;&#xa;" style="text;align=left;verticalAlign=top;spacingLeft=4;spacingRight=4;overflow=hidden;rotatable=0;points=[[0,0.5],[1,0.5]];portConstraint=eastwest;" vertex="1" parent="UW1McoA6TpxTpu0KqrxE-45">
          <mxGeometry y="138" width="170" height="26" as="geometry" />
        </mxCell>
        <mxCell id="UW1McoA6TpxTpu0KqrxE-52" value="&lt;&lt;Getters&gt;&gt;&#xa;" style="text;align=left;verticalAlign=top;spacingLeft=4;spacingRight=4;overflow=hidden;rotatable=0;points=[[0,0.5],[1,0.5]];portConstraint=eastwest;" vertex="1" parent="UW1McoA6TpxTpu0KqrxE-45">
          <mxGeometry y="164" width="170" height="26" as="geometry" />
        </mxCell>
        <mxCell id="UW1McoA6TpxTpu0KqrxE-53" value="&lt;&lt;Setters&gt;&gt;&#xa;" style="text;align=left;verticalAlign=top;spacingLeft=4;spacingRight=4;overflow=hidden;rotatable=0;points=[[0,0.5],[1,0.5]];portConstraint=eastwest;" vertex="1" parent="UW1McoA6TpxTpu0KqrxE-45">
          <mxGeometry y="190" width="170" height="26" as="geometry" />
        </mxCell>
        <mxCell id="UW1McoA6TpxTpu0KqrxE-154" style="edgeStyle=orthogonalEdgeStyle;rounded=0;orthogonalLoop=1;jettySize=auto;html=1;exitX=0.5;exitY=0;exitDx=0;exitDy=0;entryX=1;entryY=0.5;entryDx=0;entryDy=0;" edge="1" parent="WIyWlLk6GJQsqaUBKTNV-1" source="UW1McoA6TpxTpu0KqrxE-54" target="UW1McoA6TpxTpu0KqrxE-146">
          <mxGeometry relative="1" as="geometry" />
        </mxCell>
        <mxCell id="UW1McoA6TpxTpu0KqrxE-54" value="CTarjeta" style="swimlane;fontStyle=2;align=center;verticalAlign=top;childLayout=stackLayout;horizontal=1;startSize=26;horizontalStack=0;resizeParent=1;resizeLast=0;collapsible=1;marginBottom=0;rounded=0;shadow=0;strokeWidth=3;fillColor=#ffe6cc;strokeColor=#d79b00;swimlaneFillColor=default;" vertex="1" parent="WIyWlLk6GJQsqaUBKTNV-1">
          <mxGeometry x="1200" y="1552" width="170" height="268" as="geometry">
            <mxRectangle x="230" y="140" width="160" height="26" as="alternateBounds" />
          </mxGeometry>
        </mxCell>
        <mxCell id="UW1McoA6TpxTpu0KqrxE-55" value="private String tipo" style="text;align=left;verticalAlign=top;spacingLeft=4;spacingRight=4;overflow=hidden;rotatable=0;points=[[0,0.5],[1,0.5]];portConstraint=eastwest;" vertex="1" parent="UW1McoA6TpxTpu0KqrxE-54">
          <mxGeometry y="26" width="170" height="26" as="geometry" />
        </mxCell>
        <mxCell id="UW1McoA6TpxTpu0KqrxE-56" value="private String nombre" style="text;align=left;verticalAlign=top;spacingLeft=4;spacingRight=4;overflow=hidden;rotatable=0;points=[[0,0.5],[1,0.5]];portConstraint=eastwest;" vertex="1" parent="UW1McoA6TpxTpu0KqrxE-54">
          <mxGeometry y="52" width="170" height="26" as="geometry" />
        </mxCell>
        <mxCell id="UW1McoA6TpxTpu0KqrxE-57" value="private String numero" style="text;align=left;verticalAlign=top;spacingLeft=4;spacingRight=4;overflow=hidden;rotatable=0;points=[[0,0.5],[1,0.5]];portConstraint=eastwest;" vertex="1" parent="UW1McoA6TpxTpu0KqrxE-54">
          <mxGeometry y="78" width="170" height="26" as="geometry" />
        </mxCell>
        <mxCell id="UW1McoA6TpxTpu0KqrxE-58" value="private String dia&#xa;" style="text;align=left;verticalAlign=top;spacingLeft=4;spacingRight=4;overflow=hidden;rotatable=0;points=[[0,0.5],[1,0.5]];portConstraint=eastwest;" vertex="1" parent="UW1McoA6TpxTpu0KqrxE-54">
          <mxGeometry y="104" width="170" height="26" as="geometry" />
        </mxCell>
        <mxCell id="UW1McoA6TpxTpu0KqrxE-63" value="private String mes&#xa;" style="text;align=left;verticalAlign=top;spacingLeft=4;spacingRight=4;overflow=hidden;rotatable=0;points=[[0,0.5],[1,0.5]];portConstraint=eastwest;" vertex="1" parent="UW1McoA6TpxTpu0KqrxE-54">
          <mxGeometry y="130" width="170" height="26" as="geometry" />
        </mxCell>
        <mxCell id="UW1McoA6TpxTpu0KqrxE-64" value="private String year&#xa;" style="text;align=left;verticalAlign=top;spacingLeft=4;spacingRight=4;overflow=hidden;rotatable=0;points=[[0,0.5],[1,0.5]];portConstraint=eastwest;" vertex="1" parent="UW1McoA6TpxTpu0KqrxE-54">
          <mxGeometry y="156" width="170" height="26" as="geometry" />
        </mxCell>
        <mxCell id="UW1McoA6TpxTpu0KqrxE-59" value="" style="line;html=1;strokeWidth=1;align=left;verticalAlign=middle;spacingTop=-1;spacingLeft=3;spacingRight=3;rotatable=0;labelPosition=right;points=[];portConstraint=eastwest;" vertex="1" parent="UW1McoA6TpxTpu0KqrxE-54">
          <mxGeometry y="182" width="170" height="8" as="geometry" />
        </mxCell>
        <mxCell id="UW1McoA6TpxTpu0KqrxE-60" value="&lt;&lt;Constructor&gt;&gt;&#xa;" style="text;align=left;verticalAlign=top;spacingLeft=4;spacingRight=4;overflow=hidden;rotatable=0;points=[[0,0.5],[1,0.5]];portConstraint=eastwest;" vertex="1" parent="UW1McoA6TpxTpu0KqrxE-54">
          <mxGeometry y="190" width="170" height="26" as="geometry" />
        </mxCell>
        <mxCell id="UW1McoA6TpxTpu0KqrxE-61" value="&lt;&lt;Getters&gt;&gt;&#xa;" style="text;align=left;verticalAlign=top;spacingLeft=4;spacingRight=4;overflow=hidden;rotatable=0;points=[[0,0.5],[1,0.5]];portConstraint=eastwest;" vertex="1" parent="UW1McoA6TpxTpu0KqrxE-54">
          <mxGeometry y="216" width="170" height="26" as="geometry" />
        </mxCell>
        <mxCell id="UW1McoA6TpxTpu0KqrxE-62" value="&lt;&lt;Setters&gt;&gt;&#xa;" style="text;align=left;verticalAlign=top;spacingLeft=4;spacingRight=4;overflow=hidden;rotatable=0;points=[[0,0.5],[1,0.5]];portConstraint=eastwest;" vertex="1" parent="UW1McoA6TpxTpu0KqrxE-54">
          <mxGeometry y="242" width="170" height="26" as="geometry" />
        </mxCell>
        <mxCell id="UW1McoA6TpxTpu0KqrxE-65" value="CTransaccion" style="swimlane;fontStyle=2;align=center;verticalAlign=top;childLayout=stackLayout;horizontal=1;startSize=26;horizontalStack=0;resizeParent=1;resizeLast=0;collapsible=1;marginBottom=0;rounded=0;shadow=0;strokeWidth=3;fillColor=#fff2cc;strokeColor=#d6b656;swimlaneFillColor=default;" vertex="1" parent="WIyWlLk6GJQsqaUBKTNV-1">
          <mxGeometry x="920" y="340" width="190" height="426" as="geometry">
            <mxRectangle x="230" y="140" width="160" height="26" as="alternateBounds" />
          </mxGeometry>
        </mxCell>
        <mxCell id="UW1McoA6TpxTpu0KqrxE-66" value="private String deptoOrigen&#xa;" style="text;align=left;verticalAlign=top;spacingLeft=4;spacingRight=4;overflow=hidden;rotatable=0;points=[[0,0.5],[1,0.5]];portConstraint=eastwest;" vertex="1" parent="UW1McoA6TpxTpu0KqrxE-65">
          <mxGeometry y="26" width="190" height="26" as="geometry" />
        </mxCell>
        <mxCell id="UW1McoA6TpxTpu0KqrxE-67" value="private String muniOrigen" style="text;align=left;verticalAlign=top;spacingLeft=4;spacingRight=4;overflow=hidden;rotatable=0;points=[[0,0.5],[1,0.5]];portConstraint=eastwest;" vertex="1" parent="UW1McoA6TpxTpu0KqrxE-65">
          <mxGeometry y="52" width="190" height="28" as="geometry" />
        </mxCell>
        <mxCell id="UW1McoA6TpxTpu0KqrxE-68" value="private String direccionOrigen&#xa;" style="text;align=left;verticalAlign=top;spacingLeft=4;spacingRight=4;overflow=hidden;rotatable=0;points=[[0,0.5],[1,0.5]];portConstraint=eastwest;" vertex="1" parent="UW1McoA6TpxTpu0KqrxE-65">
          <mxGeometry y="80" width="190" height="26" as="geometry" />
        </mxCell>
        <mxCell id="UW1McoA6TpxTpu0KqrxE-69" value="private String paquetes&#xa;" style="text;align=left;verticalAlign=top;spacingLeft=4;spacingRight=4;overflow=hidden;rotatable=0;points=[[0,0.5],[1,0.5]];portConstraint=eastwest;" vertex="1" parent="UW1McoA6TpxTpu0KqrxE-65">
          <mxGeometry y="106" width="190" height="26" as="geometry" />
        </mxCell>
        <mxCell id="UW1McoA6TpxTpu0KqrxE-70" value="private String size&#xa;" style="text;align=left;verticalAlign=top;spacingLeft=4;spacingRight=4;overflow=hidden;rotatable=0;points=[[0,0.5],[1,0.5]];portConstraint=eastwest;" vertex="1" parent="UW1McoA6TpxTpu0KqrxE-65">
          <mxGeometry y="132" width="190" height="26" as="geometry" />
        </mxCell>
        <mxCell id="UW1McoA6TpxTpu0KqrxE-71" value="private String tipoPrecio&#xa;" style="text;align=left;verticalAlign=top;spacingLeft=4;spacingRight=4;overflow=hidden;rotatable=0;points=[[0,0.5],[1,0.5]];portConstraint=eastwest;" vertex="1" parent="UW1McoA6TpxTpu0KqrxE-65">
          <mxGeometry y="158" width="190" height="26" as="geometry" />
        </mxCell>
        <mxCell id="UW1McoA6TpxTpu0KqrxE-76" value="private String tipoPago&#xa;" style="text;align=left;verticalAlign=top;spacingLeft=4;spacingRight=4;overflow=hidden;rotatable=0;points=[[0,0.5],[1,0.5]];portConstraint=eastwest;" vertex="1" parent="UW1McoA6TpxTpu0KqrxE-65">
          <mxGeometry y="184" width="190" height="26" as="geometry" />
        </mxCell>
        <mxCell id="UW1McoA6TpxTpu0KqrxE-77" value="private String datosFacturacion&#xa;&#xa;" style="text;align=left;verticalAlign=top;spacingLeft=4;spacingRight=4;overflow=hidden;rotatable=0;points=[[0,0.5],[1,0.5]];portConstraint=eastwest;" vertex="1" parent="UW1McoA6TpxTpu0KqrxE-65">
          <mxGeometry y="210" width="190" height="26" as="geometry" />
        </mxCell>
        <mxCell id="UW1McoA6TpxTpu0KqrxE-78" value="private String total&#xa;&#xa;" style="text;align=left;verticalAlign=top;spacingLeft=4;spacingRight=4;overflow=hidden;rotatable=0;points=[[0,0.5],[1,0.5]];portConstraint=eastwest;" vertex="1" parent="UW1McoA6TpxTpu0KqrxE-65">
          <mxGeometry y="236" width="190" height="26" as="geometry" />
        </mxCell>
        <mxCell id="UW1McoA6TpxTpu0KqrxE-80" value="private String datosTarjeta&#xa;&#xa;" style="text;align=left;verticalAlign=top;spacingLeft=4;spacingRight=4;overflow=hidden;rotatable=0;points=[[0,0.5],[1,0.5]];portConstraint=eastwest;" vertex="1" parent="UW1McoA6TpxTpu0KqrxE-65">
          <mxGeometry y="262" width="190" height="26" as="geometry" />
        </mxCell>
        <mxCell id="UW1McoA6TpxTpu0KqrxE-81" value="private String cvv&#xa;&#xa;" style="text;align=left;verticalAlign=top;spacingLeft=4;spacingRight=4;overflow=hidden;rotatable=0;points=[[0,0.5],[1,0.5]];portConstraint=eastwest;" vertex="1" parent="UW1McoA6TpxTpu0KqrxE-65">
          <mxGeometry y="288" width="190" height="26" as="geometry" />
        </mxCell>
        <mxCell id="UW1McoA6TpxTpu0KqrxE-82" value="private String codigoEnvio&#xa;&#xa;" style="text;align=left;verticalAlign=top;spacingLeft=4;spacingRight=4;overflow=hidden;rotatable=0;points=[[0,0.5],[1,0.5]];portConstraint=eastwest;" vertex="1" parent="UW1McoA6TpxTpu0KqrxE-65">
          <mxGeometry y="314" width="190" height="26" as="geometry" />
        </mxCell>
        <mxCell id="UW1McoA6TpxTpu0KqrxE-72" value="" style="line;html=1;strokeWidth=1;align=left;verticalAlign=middle;spacingTop=-1;spacingLeft=3;spacingRight=3;rotatable=0;labelPosition=right;points=[];portConstraint=eastwest;" vertex="1" parent="UW1McoA6TpxTpu0KqrxE-65">
          <mxGeometry y="340" width="190" height="8" as="geometry" />
        </mxCell>
        <mxCell id="UW1McoA6TpxTpu0KqrxE-73" value="&lt;&lt;Constructor&gt;&gt;&#xa;" style="text;align=left;verticalAlign=top;spacingLeft=4;spacingRight=4;overflow=hidden;rotatable=0;points=[[0,0.5],[1,0.5]];portConstraint=eastwest;" vertex="1" parent="UW1McoA6TpxTpu0KqrxE-65">
          <mxGeometry y="348" width="190" height="26" as="geometry" />
        </mxCell>
        <mxCell id="UW1McoA6TpxTpu0KqrxE-74" value="&lt;&lt;Getters&gt;&gt;&#xa;" style="text;align=left;verticalAlign=top;spacingLeft=4;spacingRight=4;overflow=hidden;rotatable=0;points=[[0,0.5],[1,0.5]];portConstraint=eastwest;" vertex="1" parent="UW1McoA6TpxTpu0KqrxE-65">
          <mxGeometry y="374" width="190" height="26" as="geometry" />
        </mxCell>
        <mxCell id="UW1McoA6TpxTpu0KqrxE-75" value="&lt;&lt;Setters&gt;&gt;&#xa;" style="text;align=left;verticalAlign=top;spacingLeft=4;spacingRight=4;overflow=hidden;rotatable=0;points=[[0,0.5],[1,0.5]];portConstraint=eastwest;" vertex="1" parent="UW1McoA6TpxTpu0KqrxE-65">
          <mxGeometry y="400" width="190" height="26" as="geometry" />
        </mxCell>
        <mxCell id="UW1McoA6TpxTpu0KqrxE-83" value="CUbicacion" style="swimlane;fontStyle=0;align=center;verticalAlign=top;childLayout=stackLayout;horizontal=1;startSize=26;horizontalStack=0;resizeParent=1;resizeLast=0;collapsible=1;marginBottom=0;rounded=0;shadow=0;strokeWidth=3;fillColor=#b0e3e6;strokeColor=#0e8088;swimlaneFillColor=default;" vertex="1" parent="WIyWlLk6GJQsqaUBKTNV-1">
          <mxGeometry x="1180" y="850" width="143" height="190" as="geometry">
            <mxRectangle x="550" y="140" width="160" height="26" as="alternateBounds" />
          </mxGeometry>
        </mxCell>
        <mxCell id="UW1McoA6TpxTpu0KqrxE-84" value="private String codigo" style="text;align=left;verticalAlign=top;spacingLeft=4;spacingRight=4;overflow=hidden;rotatable=0;points=[[0,0.5],[1,0.5]];portConstraint=eastwest;" vertex="1" parent="UW1McoA6TpxTpu0KqrxE-83">
          <mxGeometry y="26" width="143" height="26" as="geometry" />
        </mxCell>
        <mxCell id="UW1McoA6TpxTpu0KqrxE-85" value="private String nombre" style="text;align=left;verticalAlign=top;spacingLeft=4;spacingRight=4;overflow=hidden;rotatable=0;points=[[0,0.5],[1,0.5]];portConstraint=eastwest;rounded=0;shadow=0;html=0;" vertex="1" parent="UW1McoA6TpxTpu0KqrxE-83">
          <mxGeometry y="52" width="143" height="26" as="geometry" />
        </mxCell>
        <mxCell id="UW1McoA6TpxTpu0KqrxE-87" value="" style="line;html=1;strokeWidth=1;align=left;verticalAlign=middle;spacingTop=-1;spacingLeft=3;spacingRight=3;rotatable=0;labelPosition=right;points=[];portConstraint=eastwest;" vertex="1" parent="UW1McoA6TpxTpu0KqrxE-83">
          <mxGeometry y="78" width="143" height="8" as="geometry" />
        </mxCell>
        <mxCell id="UW1McoA6TpxTpu0KqrxE-88" value="&lt;&lt;Constructor&gt;&gt;&#xa;" style="text;align=left;verticalAlign=top;spacingLeft=4;spacingRight=4;overflow=hidden;rotatable=0;points=[[0,0.5],[1,0.5]];portConstraint=eastwest;" vertex="1" parent="UW1McoA6TpxTpu0KqrxE-83">
          <mxGeometry y="86" width="143" height="26" as="geometry" />
        </mxCell>
        <mxCell id="UW1McoA6TpxTpu0KqrxE-89" value="&lt;&lt;Getters&gt;&gt;&#xa;" style="text;align=left;verticalAlign=top;spacingLeft=4;spacingRight=4;overflow=hidden;rotatable=0;points=[[0,0.5],[1,0.5]];portConstraint=eastwest;" vertex="1" parent="UW1McoA6TpxTpu0KqrxE-83">
          <mxGeometry y="112" width="143" height="26" as="geometry" />
        </mxCell>
        <mxCell id="UW1McoA6TpxTpu0KqrxE-90" value="&lt;&lt;Setters&gt;&gt;&#xa;" style="text;align=left;verticalAlign=top;spacingLeft=4;spacingRight=4;overflow=hidden;rotatable=0;points=[[0,0.5],[1,0.5]];portConstraint=eastwest;" vertex="1" parent="UW1McoA6TpxTpu0KqrxE-83">
          <mxGeometry y="138" width="143" height="26" as="geometry" />
        </mxCell>
        <mxCell id="UW1McoA6TpxTpu0KqrxE-91" value="CUsuario" style="swimlane;fontStyle=2;align=center;verticalAlign=top;childLayout=stackLayout;horizontal=1;startSize=26;horizontalStack=0;resizeParent=1;resizeLast=0;collapsible=1;marginBottom=0;rounded=0;shadow=0;strokeWidth=3;fillColor=#d5e8d4;strokeColor=#82b366;gradientColor=none;swimlaneFillColor=default;fillStyle=auto;" vertex="1" parent="WIyWlLk6GJQsqaUBKTNV-1">
          <mxGeometry x="260" y="620" width="230" height="556" as="geometry">
            <mxRectangle x="230" y="140" width="160" height="26" as="alternateBounds" />
          </mxGeometry>
        </mxCell>
        <mxCell id="UW1McoA6TpxTpu0KqrxE-92" value="private String correo&#xa;" style="text;align=left;verticalAlign=top;spacingLeft=4;spacingRight=4;overflow=hidden;rotatable=0;points=[[0,0.5],[1,0.5]];portConstraint=eastwest;" vertex="1" parent="UW1McoA6TpxTpu0KqrxE-91">
          <mxGeometry y="26" width="230" height="26" as="geometry" />
        </mxCell>
        <mxCell id="UW1McoA6TpxTpu0KqrxE-93" value="private String nombre" style="text;align=left;verticalAlign=top;spacingLeft=4;spacingRight=4;overflow=hidden;rotatable=0;points=[[0,0.5],[1,0.5]];portConstraint=eastwest;" vertex="1" parent="UW1McoA6TpxTpu0KqrxE-91">
          <mxGeometry y="52" width="230" height="28" as="geometry" />
        </mxCell>
        <mxCell id="UW1McoA6TpxTpu0KqrxE-94" value="private String apellido&#xa;" style="text;align=left;verticalAlign=top;spacingLeft=4;spacingRight=4;overflow=hidden;rotatable=0;points=[[0,0.5],[1,0.5]];portConstraint=eastwest;" vertex="1" parent="UW1McoA6TpxTpu0KqrxE-91">
          <mxGeometry y="80" width="230" height="26" as="geometry" />
        </mxCell>
        <mxCell id="UW1McoA6TpxTpu0KqrxE-95" value="private String password&#xa;" style="text;align=left;verticalAlign=top;spacingLeft=4;spacingRight=4;overflow=hidden;rotatable=0;points=[[0,0.5],[1,0.5]];portConstraint=eastwest;" vertex="1" parent="UW1McoA6TpxTpu0KqrxE-91">
          <mxGeometry y="106" width="230" height="26" as="geometry" />
        </mxCell>
        <mxCell id="UW1McoA6TpxTpu0KqrxE-96" value="private String pwdVerificado&#xa;" style="text;align=left;verticalAlign=top;spacingLeft=4;spacingRight=4;overflow=hidden;rotatable=0;points=[[0,0.5],[1,0.5]];portConstraint=eastwest;" vertex="1" parent="UW1McoA6TpxTpu0KqrxE-91">
          <mxGeometry y="132" width="230" height="26" as="geometry" />
        </mxCell>
        <mxCell id="UW1McoA6TpxTpu0KqrxE-97" value="private String dpi&#xa;" style="text;align=left;verticalAlign=top;spacingLeft=4;spacingRight=4;overflow=hidden;rotatable=0;points=[[0,0.5],[1,0.5]];portConstraint=eastwest;" vertex="1" parent="UW1McoA6TpxTpu0KqrxE-91">
          <mxGeometry y="158" width="230" height="26" as="geometry" />
        </mxCell>
        <mxCell id="UW1McoA6TpxTpu0KqrxE-98" value="private String telefono&#xa;" style="text;align=left;verticalAlign=top;spacingLeft=4;spacingRight=4;overflow=hidden;rotatable=0;points=[[0,0.5],[1,0.5]];portConstraint=eastwest;" vertex="1" parent="UW1McoA6TpxTpu0KqrxE-91">
          <mxGeometry y="184" width="230" height="26" as="geometry" />
        </mxCell>
        <mxCell id="UW1McoA6TpxTpu0KqrxE-99" value="private String fecha&#xa;&#xa;" style="text;align=left;verticalAlign=top;spacingLeft=4;spacingRight=4;overflow=hidden;rotatable=0;points=[[0,0.5],[1,0.5]];portConstraint=eastwest;" vertex="1" parent="UW1McoA6TpxTpu0KqrxE-91">
          <mxGeometry y="210" width="230" height="26" as="geometry" />
        </mxCell>
        <mxCell id="UW1McoA6TpxTpu0KqrxE-100" value="private String genero&#xa;&#xa;" style="text;align=left;verticalAlign=top;spacingLeft=4;spacingRight=4;overflow=hidden;rotatable=0;points=[[0,0.5],[1,0.5]];portConstraint=eastwest;" vertex="1" parent="UW1McoA6TpxTpu0KqrxE-91">
          <mxGeometry y="236" width="230" height="26" as="geometry" />
        </mxCell>
        <mxCell id="UW1McoA6TpxTpu0KqrxE-101" value="private String rol&#xa;&#xa;" style="text;align=left;verticalAlign=top;spacingLeft=4;spacingRight=4;overflow=hidden;rotatable=0;points=[[0,0.5],[1,0.5]];portConstraint=eastwest;" vertex="1" parent="UW1McoA6TpxTpu0KqrxE-91">
          <mxGeometry y="262" width="230" height="26" as="geometry" />
        </mxCell>
        <mxCell id="UW1McoA6TpxTpu0KqrxE-102" value="private String nacionalidad&#xa;&#xa;" style="text;align=left;verticalAlign=top;spacingLeft=4;spacingRight=4;overflow=hidden;rotatable=0;points=[[0,0.5],[1,0.5]];portConstraint=eastwest;" vertex="1" parent="UW1McoA6TpxTpu0KqrxE-91">
          <mxGeometry y="288" width="230" height="26" as="geometry" />
        </mxCell>
        <mxCell id="UW1McoA6TpxTpu0KqrxE-103" value="private String alias&#xa;&#xa;" style="text;align=left;verticalAlign=top;spacingLeft=4;spacingRight=4;overflow=hidden;rotatable=0;points=[[0,0.5],[1,0.5]];portConstraint=eastwest;" vertex="1" parent="UW1McoA6TpxTpu0KqrxE-91">
          <mxGeometry y="314" width="230" height="26" as="geometry" />
        </mxCell>
        <mxCell id="UW1McoA6TpxTpu0KqrxE-108" value="private String foto&#xa;&#xa;" style="text;align=left;verticalAlign=top;spacingLeft=4;spacingRight=4;overflow=hidden;rotatable=0;points=[[0,0.5],[1,0.5]];portConstraint=eastwest;" vertex="1" parent="UW1McoA6TpxTpu0KqrxE-91">
          <mxGeometry y="340" width="230" height="26" as="geometry" />
        </mxCell>
        <mxCell id="UW1McoA6TpxTpu0KqrxE-109" value="private String nit&#xa;&#xa;" style="text;align=left;verticalAlign=top;spacingLeft=4;spacingRight=4;overflow=hidden;rotatable=0;points=[[0,0.5],[1,0.5]];portConstraint=eastwest;" vertex="1" parent="UW1McoA6TpxTpu0KqrxE-91">
          <mxGeometry y="366" width="230" height="26" as="geometry" />
        </mxCell>
        <mxCell id="UW1McoA6TpxTpu0KqrxE-110" value="private ArrayList&lt;CTarjeta&gt; ListaTarjetas" style="text;align=left;verticalAlign=top;spacingLeft=4;spacingRight=4;overflow=hidden;rotatable=0;points=[[0,0.5],[1,0.5]];portConstraint=eastwest;" vertex="1" parent="UW1McoA6TpxTpu0KqrxE-91">
          <mxGeometry y="392" width="230" height="26" as="geometry" />
        </mxCell>
        <mxCell id="UW1McoA6TpxTpu0KqrxE-111" value="private String kiosco&#xa;&#xa;" style="text;align=left;verticalAlign=top;spacingLeft=4;spacingRight=4;overflow=hidden;rotatable=0;points=[[0,0.5],[1,0.5]];portConstraint=eastwest;" vertex="1" parent="UW1McoA6TpxTpu0KqrxE-91">
          <mxGeometry y="418" width="230" height="26" as="geometry" />
        </mxCell>
        <mxCell id="UW1McoA6TpxTpu0KqrxE-104" value="" style="line;html=1;strokeWidth=1;align=left;verticalAlign=middle;spacingTop=-1;spacingLeft=3;spacingRight=3;rotatable=0;labelPosition=right;points=[];portConstraint=eastwest;" vertex="1" parent="UW1McoA6TpxTpu0KqrxE-91">
          <mxGeometry y="444" width="230" height="8" as="geometry" />
        </mxCell>
        <mxCell id="UW1McoA6TpxTpu0KqrxE-105" value="&lt;&lt;Constructor&gt;&gt;&#xa;" style="text;align=left;verticalAlign=top;spacingLeft=4;spacingRight=4;overflow=hidden;rotatable=0;points=[[0,0.5],[1,0.5]];portConstraint=eastwest;" vertex="1" parent="UW1McoA6TpxTpu0KqrxE-91">
          <mxGeometry y="452" width="230" height="26" as="geometry" />
        </mxCell>
        <mxCell id="UW1McoA6TpxTpu0KqrxE-106" value="&lt;&lt;Getters&gt;&gt;&#xa;" style="text;align=left;verticalAlign=top;spacingLeft=4;spacingRight=4;overflow=hidden;rotatable=0;points=[[0,0.5],[1,0.5]];portConstraint=eastwest;" vertex="1" parent="UW1McoA6TpxTpu0KqrxE-91">
          <mxGeometry y="478" width="230" height="26" as="geometry" />
        </mxCell>
        <mxCell id="UW1McoA6TpxTpu0KqrxE-107" value="&lt;&lt;Setters&gt;&gt;&#xa;" style="text;align=left;verticalAlign=top;spacingLeft=4;spacingRight=4;overflow=hidden;rotatable=0;points=[[0,0.5],[1,0.5]];portConstraint=eastwest;" vertex="1" parent="UW1McoA6TpxTpu0KqrxE-91">
          <mxGeometry y="504" width="230" height="26" as="geometry" />
        </mxCell>
        <mxCell id="UW1McoA6TpxTpu0KqrxE-112" value="public Object clone&#xa;" style="text;align=left;verticalAlign=top;spacingLeft=4;spacingRight=4;overflow=hidden;rotatable=0;points=[[0,0.5],[1,0.5]];portConstraint=eastwest;" vertex="1" parent="UW1McoA6TpxTpu0KqrxE-91">
          <mxGeometry y="530" width="230" height="26" as="geometry" />
        </mxCell>
        <mxCell id="UW1McoA6TpxTpu0KqrxE-113" value="Data" style="swimlane;fontStyle=2;align=center;verticalAlign=top;childLayout=stackLayout;horizontal=1;startSize=26;horizontalStack=0;resizeParent=1;resizeLast=0;collapsible=1;marginBottom=0;rounded=0;shadow=0;strokeWidth=3;fillColor=#f8cecc;strokeColor=#b85450;swimlaneFillColor=default;" vertex="1" parent="WIyWlLk6GJQsqaUBKTNV-1">
          <mxGeometry x="550" y="850" width="550" height="816" as="geometry">
            <mxRectangle x="230" y="140" width="160" height="26" as="alternateBounds" />
          </mxGeometry>
        </mxCell>
        <mxCell id="UW1McoA6TpxTpu0KqrxE-114" value="private ArrayList&lt;CUsuario&gt; Usuarios&#xa;" style="text;align=left;verticalAlign=top;spacingLeft=4;spacingRight=4;overflow=hidden;rotatable=0;points=[[0,0.5],[1,0.5]];portConstraint=eastwest;" vertex="1" parent="UW1McoA6TpxTpu0KqrxE-113">
          <mxGeometry y="26" width="550" height="26" as="geometry" />
        </mxCell>
        <mxCell id="UW1McoA6TpxTpu0KqrxE-115" value="private ArrayList&lt;CKiosco&gt; listaKioscos" style="text;align=left;verticalAlign=top;spacingLeft=4;spacingRight=4;overflow=hidden;rotatable=0;points=[[0,0.5],[1,0.5]];portConstraint=eastwest;" vertex="1" parent="UW1McoA6TpxTpu0KqrxE-113">
          <mxGeometry y="52" width="550" height="28" as="geometry" />
        </mxCell>
        <mxCell id="UW1McoA6TpxTpu0KqrxE-116" value="private ArrayList&lt;CTarifa&gt; Tarifas" style="text;align=left;verticalAlign=top;spacingLeft=4;spacingRight=4;overflow=hidden;rotatable=0;points=[[0,0.5],[1,0.5]];portConstraint=eastwest;" vertex="1" parent="UW1McoA6TpxTpu0KqrxE-113">
          <mxGeometry y="80" width="550" height="26" as="geometry" />
        </mxCell>
        <mxCell id="UW1McoA6TpxTpu0KqrxE-117" value="private ArrayList&lt;CUbicacion&gt; Departamentos" style="text;align=left;verticalAlign=top;spacingLeft=4;spacingRight=4;overflow=hidden;rotatable=0;points=[[0,0.5],[1,0.5]];portConstraint=eastwest;" vertex="1" parent="UW1McoA6TpxTpu0KqrxE-113">
          <mxGeometry y="106" width="550" height="26" as="geometry" />
        </mxCell>
        <mxCell id="UW1McoA6TpxTpu0KqrxE-118" value="private ArrayList&lt;CUbicacion&gt; Municipios" style="text;align=left;verticalAlign=top;spacingLeft=4;spacingRight=4;overflow=hidden;rotatable=0;points=[[0,0.5],[1,0.5]];portConstraint=eastwest;" vertex="1" parent="UW1McoA6TpxTpu0KqrxE-113">
          <mxGeometry y="132" width="550" height="26" as="geometry" />
        </mxCell>
        <mxCell id="UW1McoA6TpxTpu0KqrxE-119" value="private ArrayList&lt;CRegion&gt; Regiones" style="text;align=left;verticalAlign=top;spacingLeft=4;spacingRight=4;overflow=hidden;rotatable=0;points=[[0,0.5],[1,0.5]];portConstraint=eastwest;" vertex="1" parent="UW1McoA6TpxTpu0KqrxE-113">
          <mxGeometry y="158" width="550" height="26" as="geometry" />
        </mxCell>
        <mxCell id="UW1McoA6TpxTpu0KqrxE-120" value="private ArrayList&lt;CTarjeta&gt; Tarjetas" style="text;align=left;verticalAlign=top;spacingLeft=4;spacingRight=4;overflow=hidden;rotatable=0;points=[[0,0.5],[1,0.5]];portConstraint=eastwest;" vertex="1" parent="UW1McoA6TpxTpu0KqrxE-113">
          <mxGeometry y="184" width="550" height="26" as="geometry" />
        </mxCell>
        <mxCell id="UW1McoA6TpxTpu0KqrxE-121" value="private CUsuario usuarioActual" style="text;align=left;verticalAlign=top;spacingLeft=4;spacingRight=4;overflow=hidden;rotatable=0;points=[[0,0.5],[1,0.5]];portConstraint=eastwest;" vertex="1" parent="UW1McoA6TpxTpu0KqrxE-113">
          <mxGeometry y="210" width="550" height="26" as="geometry" />
        </mxCell>
        <mxCell id="UW1McoA6TpxTpu0KqrxE-122" value="private CTransaccion TransaccionRegistrada" style="text;align=left;verticalAlign=top;spacingLeft=4;spacingRight=4;overflow=hidden;rotatable=0;points=[[0,0.5],[1,0.5]];portConstraint=eastwest;" vertex="1" parent="UW1McoA6TpxTpu0KqrxE-113">
          <mxGeometry y="236" width="550" height="26" as="geometry" />
        </mxCell>
        <mxCell id="UW1McoA6TpxTpu0KqrxE-123" value="private ArrayList&lt;CTransaccion&gt; listraTransacciones" style="text;align=left;verticalAlign=top;spacingLeft=4;spacingRight=4;overflow=hidden;rotatable=0;points=[[0,0.5],[1,0.5]];portConstraint=eastwest;" vertex="1" parent="UW1McoA6TpxTpu0KqrxE-113">
          <mxGeometry y="262" width="550" height="26" as="geometry" />
        </mxCell>
        <mxCell id="UW1McoA6TpxTpu0KqrxE-126" value="" style="line;html=1;strokeWidth=1;align=left;verticalAlign=middle;spacingTop=-1;spacingLeft=3;spacingRight=3;rotatable=0;labelPosition=right;points=[];portConstraint=eastwest;" vertex="1" parent="UW1McoA6TpxTpu0KqrxE-113">
          <mxGeometry y="288" width="550" height="8" as="geometry" />
        </mxCell>
        <mxCell id="UW1McoA6TpxTpu0KqrxE-127" value="&lt;&lt;Constructor&gt;&gt;&#xa;" style="text;align=left;verticalAlign=top;spacingLeft=4;spacingRight=4;overflow=hidden;rotatable=0;points=[[0,0.5],[1,0.5]];portConstraint=eastwest;" vertex="1" parent="UW1McoA6TpxTpu0KqrxE-113">
          <mxGeometry y="296" width="550" height="26" as="geometry" />
        </mxCell>
        <mxCell id="UW1McoA6TpxTpu0KqrxE-128" value="&lt;&lt;Getters&gt;&gt;&#xa;" style="text;align=left;verticalAlign=top;spacingLeft=4;spacingRight=4;overflow=hidden;rotatable=0;points=[[0,0.5],[1,0.5]];portConstraint=eastwest;" vertex="1" parent="UW1McoA6TpxTpu0KqrxE-113">
          <mxGeometry y="322" width="550" height="26" as="geometry" />
        </mxCell>
        <mxCell id="UW1McoA6TpxTpu0KqrxE-129" value="&lt;&lt;Setters&gt;&gt;&#xa;" style="text;align=left;verticalAlign=top;spacingLeft=4;spacingRight=4;overflow=hidden;rotatable=0;points=[[0,0.5],[1,0.5]];portConstraint=eastwest;" vertex="1" parent="UW1McoA6TpxTpu0KqrxE-113">
          <mxGeometry y="348" width="550" height="26" as="geometry" />
        </mxCell>
        <mxCell id="UW1McoA6TpxTpu0KqrxE-130" value="public CUsuario GetUsuario(String correo, String clave)" style="text;align=left;verticalAlign=top;spacingLeft=4;spacingRight=4;overflow=hidden;rotatable=0;points=[[0,0.5],[1,0.5]];portConstraint=eastwest;" vertex="1" parent="UW1McoA6TpxTpu0KqrxE-113">
          <mxGeometry y="374" width="550" height="26" as="geometry" />
        </mxCell>
        <mxCell id="UW1McoA6TpxTpu0KqrxE-131" value="public String GetNombreUsuario(String correo)" style="text;align=left;verticalAlign=top;spacingLeft=4;spacingRight=4;overflow=hidden;rotatable=0;points=[[0,0.5],[1,0.5]];portConstraint=eastwest;" vertex="1" parent="UW1McoA6TpxTpu0KqrxE-113">
          <mxGeometry y="400" width="550" height="26" as="geometry" />
        </mxCell>
        <mxCell id="UW1McoA6TpxTpu0KqrxE-132" value="public void actualizarTarifas(String CurrenRegion, Double precioEspecialAsDouble, Double precioEstandarAsDouble)" style="text;align=left;verticalAlign=top;spacingLeft=4;spacingRight=4;overflow=hidden;rotatable=0;points=[[0,0.5],[1,0.5]];portConstraint=eastwest;" vertex="1" parent="UW1McoA6TpxTpu0KqrxE-113">
          <mxGeometry y="426" width="550" height="26" as="geometry" />
        </mxCell>
        <mxCell id="UW1McoA6TpxTpu0KqrxE-134" value="public void InitTarifas" style="text;align=left;verticalAlign=top;spacingLeft=4;spacingRight=4;overflow=hidden;rotatable=0;points=[[0,0.5],[1,0.5]];portConstraint=eastwest;" vertex="1" parent="UW1McoA6TpxTpu0KqrxE-113">
          <mxGeometry y="452" width="550" height="26" as="geometry" />
        </mxCell>
        <mxCell id="UW1McoA6TpxTpu0KqrxE-135" value="public boolean existeKiosco(String codigo, String nombre)" style="text;align=left;verticalAlign=top;spacingLeft=4;spacingRight=4;overflow=hidden;rotatable=0;points=[[0,0.5],[1,0.5]];portConstraint=eastwest;" vertex="1" parent="UW1McoA6TpxTpu0KqrxE-113">
          <mxGeometry y="478" width="550" height="26" as="geometry" />
        </mxCell>
        <mxCell id="UW1McoA6TpxTpu0KqrxE-136" value="public boolean eliminarKiosco(String codigo)" style="text;align=left;verticalAlign=top;spacingLeft=4;spacingRight=4;overflow=hidden;rotatable=0;points=[[0,0.5],[1,0.5]];portConstraint=eastwest;" vertex="1" parent="UW1McoA6TpxTpu0KqrxE-113">
          <mxGeometry y="504" width="550" height="26" as="geometry" />
        </mxCell>
        <mxCell id="UW1McoA6TpxTpu0KqrxE-137" value="public boolean actualizarKiosco(String codigoKiosco, String nombreKiosco, String nombreRegion)" style="text;align=left;verticalAlign=top;spacingLeft=4;spacingRight=4;overflow=hidden;rotatable=0;points=[[0,0.5],[1,0.5]];portConstraint=eastwest;" vertex="1" parent="UW1McoA6TpxTpu0KqrxE-113">
          <mxGeometry y="530" width="550" height="26" as="geometry" />
        </mxCell>
        <mxCell id="UW1McoA6TpxTpu0KqrxE-138" value="public ArrayList&lt;CUbicacion&gt; getListaMunicipios(String codigoDepto)&#xa;" style="text;align=left;verticalAlign=top;spacingLeft=4;spacingRight=4;overflow=hidden;rotatable=0;points=[[0,0.5],[1,0.5]];portConstraint=eastwest;" vertex="1" parent="UW1McoA6TpxTpu0KqrxE-113">
          <mxGeometry y="556" width="550" height="26" as="geometry" />
        </mxCell>
        <mxCell id="UW1McoA6TpxTpu0KqrxE-139" value="public void InitUbicaciones&#xa;" style="text;align=left;verticalAlign=top;spacingLeft=4;spacingRight=4;overflow=hidden;rotatable=0;points=[[0,0.5],[1,0.5]];portConstraint=eastwest;" vertex="1" parent="UW1McoA6TpxTpu0KqrxE-113">
          <mxGeometry y="582" width="550" height="26" as="geometry" />
        </mxCell>
        <mxCell id="UW1McoA6TpxTpu0KqrxE-140" value="public void Init&#xa;" style="text;align=left;verticalAlign=top;spacingLeft=4;spacingRight=4;overflow=hidden;rotatable=0;points=[[0,0.5],[1,0.5]];portConstraint=eastwest;" vertex="1" parent="UW1McoA6TpxTpu0KqrxE-113">
          <mxGeometry y="608" width="550" height="26" as="geometry" />
        </mxCell>
        <mxCell id="UW1McoA6TpxTpu0KqrxE-142" value="public void InitRegiones&#xa;" style="text;align=left;verticalAlign=top;spacingLeft=4;spacingRight=4;overflow=hidden;rotatable=0;points=[[0,0.5],[1,0.5]];portConstraint=eastwest;" vertex="1" parent="UW1McoA6TpxTpu0KqrxE-113">
          <mxGeometry y="634" width="550" height="26" as="geometry" />
        </mxCell>
        <mxCell id="UW1McoA6TpxTpu0KqrxE-141" value="public CRegion GetRegion(String codigo)&#xa;" style="text;align=left;verticalAlign=top;spacingLeft=4;spacingRight=4;overflow=hidden;rotatable=0;points=[[0,0.5],[1,0.5]];portConstraint=eastwest;" vertex="1" parent="UW1McoA6TpxTpu0KqrxE-113">
          <mxGeometry y="660" width="550" height="26" as="geometry" />
        </mxCell>
        <mxCell id="UW1McoA6TpxTpu0KqrxE-143" value="public CTarifa GetTarifa (String codigo)" style="text;align=left;verticalAlign=top;spacingLeft=4;spacingRight=4;overflow=hidden;rotatable=0;points=[[0,0.5],[1,0.5]];portConstraint=eastwest;" vertex="1" parent="UW1McoA6TpxTpu0KqrxE-113">
          <mxGeometry y="686" width="550" height="26" as="geometry" />
        </mxCell>
        <mxCell id="UW1McoA6TpxTpu0KqrxE-144" value="public String GetCodigoDeptoByNombre(String nombre)" style="text;align=left;verticalAlign=top;spacingLeft=4;spacingRight=4;overflow=hidden;rotatable=0;points=[[0,0.5],[1,0.5]];portConstraint=eastwest;" vertex="1" parent="UW1McoA6TpxTpu0KqrxE-113">
          <mxGeometry y="712" width="550" height="26" as="geometry" />
        </mxCell>
        <mxCell id="UW1McoA6TpxTpu0KqrxE-145" value="public String GetRegionByCodigoDepto(String codigoDepto)" style="text;align=left;verticalAlign=top;spacingLeft=4;spacingRight=4;overflow=hidden;rotatable=0;points=[[0,0.5],[1,0.5]];portConstraint=eastwest;" vertex="1" parent="UW1McoA6TpxTpu0KqrxE-113">
          <mxGeometry y="738" width="550" height="26" as="geometry" />
        </mxCell>
        <mxCell id="UW1McoA6TpxTpu0KqrxE-146" value="public Double GetTarifaEstandarByNombreRegion(String nombreRegion)" style="text;align=left;verticalAlign=top;spacingLeft=4;spacingRight=4;overflow=hidden;rotatable=0;points=[[0,0.5],[1,0.5]];portConstraint=eastwest;" vertex="1" parent="UW1McoA6TpxTpu0KqrxE-113">
          <mxGeometry y="764" width="550" height="26" as="geometry" />
        </mxCell>
        <mxCell id="UW1McoA6TpxTpu0KqrxE-147" value="public Double GetTarifaEspecialByNombreRegion(String nombreRegion)" style="text;align=left;verticalAlign=top;spacingLeft=4;spacingRight=4;overflow=hidden;rotatable=0;points=[[0,0.5],[1,0.5]];portConstraint=eastwest;" vertex="1" parent="UW1McoA6TpxTpu0KqrxE-113">
          <mxGeometry y="790" width="550" height="26" as="geometry" />
        </mxCell>
        <mxCell id="UW1McoA6TpxTpu0KqrxE-149" style="edgeStyle=orthogonalEdgeStyle;rounded=0;orthogonalLoop=1;jettySize=auto;html=1;exitX=1;exitY=0.5;exitDx=0;exitDy=0;entryX=0.329;entryY=0.001;entryDx=0;entryDy=0;entryPerimeter=0;" edge="1" parent="WIyWlLk6GJQsqaUBKTNV-1" source="UW1McoA6TpxTpu0KqrxE-49" target="UW1McoA6TpxTpu0KqrxE-113">
          <mxGeometry relative="1" as="geometry" />
        </mxCell>
        <mxCell id="UW1McoA6TpxTpu0KqrxE-150" style="edgeStyle=orthogonalEdgeStyle;rounded=0;orthogonalLoop=1;jettySize=auto;html=1;exitX=0;exitY=0.5;exitDx=0;exitDy=0;entryX=0.562;entryY=0.007;entryDx=0;entryDy=0;entryPerimeter=0;" edge="1" parent="WIyWlLk6GJQsqaUBKTNV-1" source="UW1McoA6TpxTpu0KqrxE-76" target="UW1McoA6TpxTpu0KqrxE-113">
          <mxGeometry relative="1" as="geometry" />
        </mxCell>
        <mxCell id="UW1McoA6TpxTpu0KqrxE-151" style="edgeStyle=orthogonalEdgeStyle;rounded=0;orthogonalLoop=1;jettySize=auto;html=1;exitX=1;exitY=0.5;exitDx=0;exitDy=0;entryX=0;entryY=0.011;entryDx=0;entryDy=0;entryPerimeter=0;" edge="1" parent="WIyWlLk6GJQsqaUBKTNV-1" source="UW1McoA6TpxTpu0KqrxE-103" target="UW1McoA6TpxTpu0KqrxE-113">
          <mxGeometry relative="1" as="geometry" />
        </mxCell>
        <mxCell id="UW1McoA6TpxTpu0KqrxE-152" style="edgeStyle=orthogonalEdgeStyle;rounded=0;orthogonalLoop=1;jettySize=auto;html=1;exitX=1;exitY=0.5;exitDx=0;exitDy=0;entryX=0;entryY=0.5;entryDx=0;entryDy=0;" edge="1" parent="WIyWlLk6GJQsqaUBKTNV-1" source="zkfFHV4jXpPFQw0GAbJ--18" target="UW1McoA6TpxTpu0KqrxE-127">
          <mxGeometry relative="1" as="geometry" />
        </mxCell>
        <mxCell id="UW1McoA6TpxTpu0KqrxE-153" style="edgeStyle=orthogonalEdgeStyle;rounded=0;orthogonalLoop=1;jettySize=auto;html=1;exitX=1;exitY=0.5;exitDx=0;exitDy=0;entryX=0;entryY=0.5;entryDx=0;entryDy=0;" edge="1" parent="WIyWlLk6GJQsqaUBKTNV-1" source="UW1McoA6TpxTpu0KqrxE-27" target="UW1McoA6TpxTpu0KqrxE-147">
          <mxGeometry relative="1" as="geometry" />
        </mxCell>
        <mxCell id="UW1McoA6TpxTpu0KqrxE-155" style="edgeStyle=orthogonalEdgeStyle;rounded=0;orthogonalLoop=1;jettySize=auto;html=1;exitX=0;exitY=0.5;exitDx=0;exitDy=0;entryX=1;entryY=0.5;entryDx=0;entryDy=0;" edge="1" parent="WIyWlLk6GJQsqaUBKTNV-1" source="UW1McoA6TpxTpu0KqrxE-10" target="UW1McoA6TpxTpu0KqrxE-134">
          <mxGeometry relative="1" as="geometry" />
        </mxCell>
        <mxCell id="UW1McoA6TpxTpu0KqrxE-156" style="edgeStyle=orthogonalEdgeStyle;rounded=0;orthogonalLoop=1;jettySize=auto;html=1;exitX=0;exitY=0.5;exitDx=0;exitDy=0;entryX=1;entryY=0.5;entryDx=0;entryDy=0;" edge="1" parent="WIyWlLk6GJQsqaUBKTNV-1" source="UW1McoA6TpxTpu0KqrxE-84" target="UW1McoA6TpxTpu0KqrxE-118">
          <mxGeometry relative="1" as="geometry" />
        </mxCell>
      </root>
    </mxGraphModel>
  </diagram>
</mxfile>
